<svg width="20" height="20" viewBox="0 0 20 20" fill="black" xmlns="http://www.w3.org/2000/svg">
  <path d="M1.11111 0H18.8889C19.1836 0 19.4662 0.117063 19.6746 0.325437C19.8829 0.533811 20 0.816426 20 1.11111V18.8889C20 19.1836 19.8829 19.4662 19.6746 19.6746C19.4662 19.8829 19.1836 20 18.8889 20H1.11111C0.816426 20 0.533811 19.8829 0.325437 19.6746C0.117063 19.4662 0 19.1836 0 18.8889V1.11111C0 0.816426 0.117063 0.533811 0.325437 0.325437C0.533811 0.117063 0.816426 0 1.11111 0ZM2.22222 2.22222V17.7778H17.7778V2.22222H2.22222Z"/>
</svg>
