<svg width="340" height="63" viewBox="0 0 340 63" fill="none" xmlns="http://www.w3.org/2000/svg">
  <path d="M59.8964 30.169C59.8964 46.8309 46.4881 60.338 29.9482 60.338C13.4083 60.338 0 46.8309 0 30.169C0 13.5071 13.4083 0 29.9482 0C46.4881 0 59.8964 13.5071 59.8964 30.169Z" fill="#F66C40"/>
  <path d="M47.5129 44.0196V56.0096C47.5129 56.567 47.3697 57.0994 47.111 57.5791C46.4063 58.8962 44.8429 59.8168 43.0399 59.8168H16.3948C14.8782 59.8168 13.5349 59.1679 12.7229 58.178C12.2192 57.5624 11.9219 56.8165 11.9219 56.0124V44.0224C11.9219 43.2793 12.1779 42.5833 12.6155 41.9954C13.4083 40.9279 14.8066 40.218 16.3921 40.218H43.0372C43.2519 40.218 43.4638 40.2319 43.6703 40.2568C45.8365 40.5147 47.5129 42.1091 47.5129 44.0196Z" fill="white"/>
  <path d="M30.0622 36.8794C39.165 38.3962 47.6568 43.9669 50.8718 52.524C53.4703 59.4396 48.7496 59.8139 48.7496 59.8139H29.875H30.0485H11.1739C11.1739 59.8139 6.456 59.4424 9.05445 52.524C12.2695 43.9669 20.7612 38.3962 29.864 36.8794" fill="white"/>
  <g opacity="0.35">
    <path opacity="0.6" d="M48.7483 59.814H11.1699C11.1699 59.814 7.86958 59.5534 8.30999 55.419C8.3155 55.4689 8.32375 55.5188 8.33201 55.5659C8.64856 57.5902 11.3846 57.9839 12.2957 56.1538L12.7086 55.3247H47.1821L47.6252 56.1954C48.5474 58.0116 51.2532 57.6068 51.5835 55.5937C51.5917 55.5354 51.6027 55.4772 51.6082 55.4162C52.0514 59.5534 48.7483 59.814 48.7483 59.814Z" fill="#071D49"/>
  </g>
  <path d="M9.63281 55.6745C9.63281 55.6745 11.4303 50.2147 16.2721 50.1981C20.7395 50.1842 22.4434 52.4275 21.3974 55.5109C20.8771 57.0443 15.3114 58.4945 12.7075 55.3307" fill="white"/>
  <g opacity="0.35">
    <path opacity="0.35" d="M21.4009 55.5104C20.8806 57.0438 15.3149 58.4941 12.7109 55.3302C12.7109 54.7756 13.3193 54.4512 13.7817 54.7534C16.5976 56.603 20.9439 55.3219 21.4009 53.9743C21.5 53.6803 21.5743 53.3947 21.6238 53.1174C21.7725 53.8245 21.6981 54.6342 21.4009 55.5104Z" fill="#071D49"/>
  </g>
  <path d="M9.50781 55.6297C9.51607 54.9891 9.73628 54.4124 10.017 53.8744C10.2951 53.3309 10.6556 52.8346 11.0603 52.3771C11.4677 51.9223 11.9026 51.4842 12.398 51.1154C12.8907 50.7438 13.4358 50.4333 14.0166 50.2114C14.5974 49.9868 15.2112 49.8537 15.8278 49.8094L16.2902 49.7927C16.4388 49.7955 16.5902 49.7955 16.7389 49.801C17.0389 49.8121 17.3389 49.8315 17.6417 49.8676C18.2418 49.9369 18.8474 50.0589 19.4309 50.278C20.0145 50.4915 20.5842 50.8131 21.0522 51.2707C21.5256 51.7254 21.8642 52.3382 22.0018 52.9815C22.145 53.6249 22.1147 54.2848 21.9798 54.8976C21.9495 55.0529 21.9055 55.2026 21.8669 55.3524L21.7981 55.5742L21.7816 55.6297C21.7761 55.6491 21.7623 55.6768 21.7541 55.699L21.688 55.8432C21.4871 56.1925 21.2173 56.4116 20.9503 56.6002C20.4081 56.9662 19.8245 57.1825 19.23 57.3433C18.0436 57.6483 16.7994 57.7065 15.5883 57.4514C15.4369 57.4182 15.2855 57.3849 15.1369 57.3377C14.9855 57.2989 14.8396 57.2435 14.6937 57.1936C14.5478 57.1436 14.4047 57.0799 14.256 57.0244C14.1156 56.9551 13.967 56.8996 13.8294 56.8192C13.6918 56.7416 13.5541 56.6639 13.4303 56.5613C13.3009 56.4698 13.1853 56.3617 13.0752 56.2452C12.8577 56.0151 12.6843 55.735 12.6045 55.4106C12.5852 55.3302 12.632 55.2498 12.7118 55.2304C12.7394 55.222 12.7696 55.2248 12.7944 55.2331L12.8082 55.2387C12.9651 55.2914 13.0862 55.3662 13.2156 55.4328C13.3449 55.4966 13.455 55.577 13.5734 55.6435C13.6312 55.6796 13.6862 55.7156 13.7413 55.7544C13.7991 55.7905 13.8569 55.821 13.912 55.8598C13.9698 55.8931 14.0221 55.9347 14.0799 55.9679C14.1377 56.0012 14.1955 56.0373 14.2505 56.0733C14.6964 56.37 15.2194 56.5475 15.7507 56.6639C16.8187 56.8913 17.9583 56.8414 19.0208 56.5641C19.5493 56.4199 20.0695 56.2203 20.4962 55.9319C20.7053 55.7905 20.8898 55.6186 20.9806 55.4577C20.9889 55.4383 20.9944 55.4189 21.0054 55.4023C21.0109 55.3912 21.0136 55.3884 21.0191 55.3718L21.0357 55.3219L21.0962 55.125C21.132 54.9919 21.1705 54.8616 21.1953 54.7285C21.3109 54.1988 21.3302 53.6581 21.2201 53.159C21.11 52.6571 20.8595 52.2024 20.4906 51.8474C20.1246 51.4897 19.6566 51.2208 19.1501 51.035C18.6437 50.8464 18.0986 50.7327 17.5454 50.669C17.2701 50.6357 16.9894 50.619 16.7086 50.608L16.2874 50.6024L15.8801 50.6163C15.3378 50.6523 14.8038 50.7688 14.2973 50.9657C13.2871 51.3566 12.3843 52.0471 11.6906 52.9178C11.5172 53.1368 11.3548 53.3614 11.1979 53.5943C11.0383 53.8245 10.8869 54.0602 10.7355 54.2959C10.4382 54.7728 10.1437 55.2553 9.7583 55.7156L9.75279 55.7239C9.70325 55.7849 9.61516 55.7905 9.55461 55.7406C9.52433 55.7128 9.50781 55.6712 9.50781 55.6297Z" fill="#071D49"/>
  <path d="M50.2582 55.6745C50.2582 55.6745 48.4608 50.2147 43.6189 50.1981C39.1515 50.1842 37.4476 52.4275 38.4936 55.5109C39.0139 57.0443 44.5796 58.4945 47.1835 55.3307" fill="white"/>
  <path d="M50.2582 55.6745C50.2582 55.6745 48.4608 50.2147 43.6189 50.1981C39.1515 50.1842 37.4476 52.4275 38.4936 55.5109C39.0139 57.0443 44.5796 58.4945 47.1835 55.3307L50.2582 55.6745Z" fill="white"/>
  <g opacity="0.35">
    <path opacity="0.35" d="M47.1825 55.3299C44.5786 58.4938 39.0156 57.0436 38.4926 55.5102C38.1953 54.634 38.121 53.8243 38.2696 53.1172C38.3192 53.3945 38.3935 53.6801 38.4926 53.974C38.9495 55.3216 43.2959 56.6027 46.1118 54.7532C46.5742 54.4509 47.1825 54.7754 47.1825 55.3299Z" fill="#071D49"/>
  </g>
  <path d="M50.1341 55.7155C49.7515 55.2552 49.457 54.7727 49.1569 54.2957C49.0055 54.0573 48.8542 53.8243 48.6945 53.5942C48.5404 53.3613 48.3752 53.1367 48.2018 52.9176C47.5081 52.0469 46.6053 51.3592 45.5951 50.9655C45.0886 50.7686 44.5546 50.6522 44.0123 50.6161L43.6022 50.6022L43.1811 50.6078C42.9003 50.6189 42.6195 50.6355 42.3443 50.6688C41.791 50.7326 41.246 50.8435 40.7395 51.0348C40.233 51.2206 39.7651 51.4896 39.399 51.8473C39.0302 52.205 38.7797 52.6597 38.6696 53.1589C38.5595 53.6607 38.576 54.1987 38.6943 54.7283C38.7191 54.8614 38.7577 54.9917 38.7934 55.1248L38.854 55.3217L38.8705 55.3716C38.876 55.3882 38.8788 55.391 38.8843 55.4021C38.8925 55.4215 38.9008 55.4382 38.909 55.4576C38.9999 55.6184 39.1843 55.7903 39.3935 55.9317C39.8174 56.2201 40.3404 56.4198 40.8689 56.564C41.9314 56.8385 43.0737 56.8912 44.139 56.6638C44.6702 56.5473 45.1932 56.3699 45.6391 56.0732C45.6942 56.0371 45.752 56.0011 45.8098 55.9678C45.8676 55.9345 45.9199 55.8929 45.9777 55.8596C46.0328 55.8236 46.0933 55.7903 46.1484 55.7543C46.2034 55.7155 46.2585 55.6794 46.3163 55.6434C46.4346 55.5768 46.5447 55.4964 46.6741 55.4326C46.8007 55.3661 46.9246 55.2912 47.0787 55.2385L47.0925 55.233C47.1696 55.2052 47.2521 55.2468 47.2797 55.3245C47.2879 55.3522 47.2907 55.3827 47.2824 55.4077C47.2026 55.7321 47.0292 56.0122 46.8117 56.2423C46.7016 56.356 46.586 56.4669 46.4566 56.5584C46.3328 56.6582 46.1952 56.7386 46.0575 56.8163C45.9199 56.8967 45.774 56.9522 45.6309 57.0215C45.485 57.0769 45.3418 57.1407 45.1932 57.1906C45.0473 57.2405 44.9014 57.296 44.75 57.3348C44.6014 57.3792 44.45 57.4152 44.2986 57.4485C43.0875 57.7036 41.8433 57.6454 40.6569 57.3404C40.0651 57.1768 39.4816 56.9633 38.9366 56.5972C38.6696 56.4114 38.3998 56.1896 38.1989 55.8402L38.1328 55.696C38.1246 55.6739 38.1108 55.6461 38.1053 55.6267L38.0888 55.5713L38.02 55.3494C37.9787 55.1997 37.9346 55.05 37.9071 54.8947C37.775 54.2819 37.7447 53.6247 37.8851 52.9786C38.0227 52.3353 38.3613 51.7225 38.8347 51.2677C39.3054 50.8074 39.8724 50.4886 40.456 50.2751C41.0423 50.056 41.6451 49.934 42.2452 49.8647C42.5452 49.8286 42.848 49.8092 43.148 49.7981C43.2994 49.7926 43.4481 49.7926 43.5967 49.7898L44.0591 49.8064C44.6757 49.848 45.2923 49.9811 45.8703 50.2085C46.4511 50.4331 46.9934 50.7437 47.4889 51.1125C47.9843 51.4813 48.4165 51.9194 48.8266 52.3741C49.2313 52.8317 49.5918 53.3308 49.8699 53.8715C50.1534 54.4094 50.3708 54.9862 50.3791 55.6267C50.3791 55.7044 50.3185 55.7681 50.2415 55.7709C50.1974 55.7709 50.1589 55.7515 50.1314 55.721L50.1341 55.7155Z" fill="#071D49"/>
  <path d="M48.7644 60.2185H11.1392C11.0704 60.213 9.43259 60.0688 8.4912 58.5742C7.60211 57.16 7.66267 55.0776 8.67562 52.3851C11.7365 44.2384 19.8291 38.1436 29.7935 36.4854C29.8513 36.4771 29.9064 36.4798 29.9587 36.4937C30.011 36.4798 30.066 36.4771 30.1238 36.4854C40.0882 38.1464 48.1808 44.2384 51.2417 52.3851C52.2546 55.0804 52.3152 57.1628 51.4261 58.577C50.4875 60.0688 48.8469 60.2158 48.7781 60.2213L48.7644 60.2185ZM30.0467 59.4116H48.7313C48.8745 59.395 50.0691 59.2369 50.7572 58.1333C51.4894 56.9604 51.3986 55.0721 50.4957 52.6707C47.5367 44.7902 39.6808 38.8923 29.9944 37.2812C29.9834 37.2784 29.9697 37.2757 29.9587 37.2729C29.9476 37.2757 29.9366 37.2784 29.9229 37.2812C20.2393 38.895 12.3834 44.7902 9.42158 52.6707C8.51873 55.0748 8.42789 56.9632 9.16008 58.1333C9.84823 59.2369 11.0373 59.3978 11.1887 59.4144H30.0467V59.4116Z" fill="#071D49"/>
  <path d="M6.68925 60.1996C7.64857 59.9866 8.60985 59.934 9.56917 59.9091C10.0498 59.8953 10.5285 59.8925 11.0091 59.8953C11.4898 59.8953 11.9684 59.9036 12.4491 59.9119C13.4084 59.9257 14.3697 59.9285 15.329 59.9257H18.2089H29.7286H41.2482H47.0081H48.448L49.169 59.9146L49.89 59.898C50.8493 59.8925 51.8106 59.9063 52.7699 60.1996C52.8231 60.2162 52.8585 60.2909 52.8467 60.3684C52.8388 60.4237 52.8073 60.4652 52.7699 60.4763C51.8106 60.7723 50.8493 60.7834 49.89 60.7779L49.169 60.7613L48.448 60.7502H47.0081H41.2482H29.7286H18.2089H15.329C14.3697 60.7474 13.4084 60.7502 12.4491 60.764C11.9684 60.7723 11.4898 60.7806 11.0091 60.7806C10.5285 60.7834 10.0498 60.7806 9.56917 60.7668C8.60985 60.7419 7.64857 60.6893 6.68925 60.4763C6.63606 60.4652 6.59864 60.3933 6.60652 60.3158C6.61243 60.2549 6.64788 60.2107 6.68925 60.1996Z" fill="#071D49"/>
  <path d="M44.6224 59.6894H15.2578C13.9255 59.6894 12.8438 58.6024 12.8438 57.2576V57.1328H47.0337V57.2576C47.0337 58.6024 45.9547 59.6894 44.6224 59.6894Z" fill="#C5D3E2"/>
  <g opacity="0.35">
    <path opacity="0.35" d="M47.0337 57.1353V57.26C47.0337 58.6021 45.9519 59.6919 44.6197 59.6919H15.2578C13.9255 59.6919 12.8438 58.6021 12.8438 57.26V57.1353H12.9511C13.2539 58.1279 14.1733 58.8489 15.2578 58.8489H44.6197C45.7042 58.8489 46.6235 58.1279 46.9263 57.1353H47.0337Z" fill="#071D49"/>
  </g>
  <path d="M44.6231 60.0941H15.2585C13.706 60.0941 12.4453 58.8242 12.4453 57.2602V56.7334H47.4362V57.2602C47.4362 58.8214 46.1728 60.0941 44.6231 60.0941ZM13.2656 57.5375C13.4005 58.5247 14.2428 59.2845 15.2585 59.2845H44.6231C45.6388 59.2845 46.4811 58.5219 46.616 57.5375H13.2656Z" fill="#071D49"/>
  <path d="M29.5252 42.6584C29.657 42.661 29.7862 42.6637 29.9181 42.6637C37.4539 42.6637 43.8773 37.5243 45.8174 30.4824C45.8807 30.5229 45.9554 30.5463 46.0345 30.5463C46.04 30.5463 46.0483 30.5463 46.0511 30.5407C47.009 30.4964 47.8898 30.0777 48.5339 29.365C49.178 28.6496 49.5083 27.7263 49.4643 26.7641L49.3101 23.456C49.2165 21.4678 47.5374 19.9261 45.5611 20.0204C45.4779 20.0245 45.4017 20.0535 45.3393 20.0997C44.5682 18.0654 43.395 16.1864 41.8589 14.5632C38.8172 11.3495 34.7131 9.51936 30.3062 9.41399C25.8993 9.30862 21.7126 10.9363 18.5224 14.0003C16.3288 16.1073 14.7846 18.7201 13.9999 21.5904C13.9328 21.5494 13.8533 21.5274 13.7687 21.5316C12.8108 21.576 11.9299 21.9947 11.2858 22.7073C10.6417 23.4227 10.3114 24.3461 10.3555 25.3083L10.5096 28.6164C10.6004 30.5491 12.1887 32.0575 14.088 32.0575H14.2614C14.3493 32.0532 14.4292 32.0211 14.4934 31.9703C16.8196 38.0791 22.632 42.4924 29.5162 42.6581L29.5252 42.6584Z" fill="#071D49"/>
  <path fill-rule="evenodd" clip-rule="evenodd" d="M29.5021 43.7673H29.502L29.4912 43.7671H29.4894C22.4426 43.5974 16.4534 39.2577 13.7874 33.157C11.4382 33.006 9.52328 31.0935 9.40932 28.6688L9.25507 25.3593C9.19759 24.1034 9.63074 22.894 10.4697 21.9621L10.4705 21.9613L10.4712 21.9605C11.19 21.1653 12.1395 20.6481 13.1824 20.4792C14.0767 17.7357 15.6341 15.2414 17.7621 13.1977C21.164 9.93031 25.6335 8.19282 30.3319 8.30518C35.0309 8.41753 39.4122 10.3713 42.6552 13.7979C44.0922 15.3163 45.2329 17.0471 46.0473 18.9177C48.3913 19.0754 50.2956 20.987 50.4094 23.4034V23.404L50.5635 26.712L50.5636 26.7129C50.6211 27.9689 50.1879 29.1783 49.3489 30.1102L49.3482 30.1109L49.3474 30.1117C48.6277 30.9082 47.6765 31.4256 46.6319 31.5939C44.3064 38.6832 37.6658 43.7729 29.9176 43.7729C29.7744 43.7729 29.6356 43.7701 29.5069 43.7674L29.5021 43.7673ZM46.0505 30.5407C47.0084 30.4964 47.8892 30.0777 48.5333 29.365C49.1774 28.6496 49.5077 27.7263 49.4637 26.7641L49.3096 23.456C49.216 21.4679 47.5369 19.9261 45.5605 20.0204C45.5541 20.0207 45.5478 20.0212 45.5414 20.0217C45.4656 20.0291 45.3963 20.057 45.3387 20.0997C45.2068 19.7518 45.0632 19.4084 44.9079 19.07C44.1556 17.4301 43.1316 15.9088 41.8583 14.5633C38.8167 11.3495 34.7126 9.51937 30.3057 9.414C25.8988 9.30863 21.7121 10.9363 18.5218 14.0004C16.6033 15.8431 15.1815 18.0728 14.3301 20.5232C14.208 20.8746 14.0976 21.2304 13.9992 21.5904C13.9369 21.5521 13.8637 21.5305 13.7856 21.5311C13.7799 21.5312 13.7741 21.5313 13.7681 21.5316C12.8102 21.576 11.9294 21.9947 11.2853 22.7073C10.6412 23.4227 10.3109 24.3461 10.3549 25.3083L10.509 28.6164C10.5999 30.5491 12.1881 32.0575 14.0874 32.0575H14.2608C14.2635 32.0573 14.266 32.0572 14.2686 32.0571C14.3534 32.0513 14.4305 32.0196 14.4928 31.9703C14.6259 32.3198 14.7704 32.6638 14.9258 33.0016C17.4876 38.5701 23.0253 42.5019 29.5157 42.6581L29.5246 42.6584C29.6564 42.661 29.7857 42.6637 29.9176 42.6637C37.0669 42.6637 43.215 38.0379 45.4835 31.5502C45.606 31.1996 45.7173 30.8434 45.8168 30.4824C45.8802 30.5229 45.9548 30.5463 46.034 30.5463C46.0367 30.5463 46.04 30.5463 46.0431 30.5456C46.0463 30.545 46.0491 30.5435 46.0505 30.5407Z" fill="white"/>
  <path d="M46.2162 30.6124C46.0206 30.6209 45.8541 30.473 45.8454 30.2825L45.3636 20.33C45.3549 20.1395 45.5067 19.9774 45.7023 19.9689C47.7577 19.8751 49.5007 21.422 49.6 23.4238L49.7635 26.8162C49.8569 28.8209 48.2716 30.5185 46.2162 30.6124Z" fill="white"/>
  <g opacity="0.35">
    <path opacity="0.6" d="M49.3216 25.2195L49.3932 26.7723C49.4841 28.7244 47.9866 30.3798 46.0488 30.4741C45.8644 30.4824 45.7075 30.3382 45.6992 30.1524L45.5781 27.5737C45.6359 27.6901 45.757 27.765 45.8919 27.7594L46.1204 27.7484C47.6508 27.6735 48.9088 26.6226 49.3216 25.2195Z" fill="#071D49"/>
  </g>
  <path d="M14.0353 20.8524C14.2505 20.8428 14.4335 21.0092 14.4432 21.2235L14.9731 32.4201C14.9827 32.6344 14.8157 32.8168 14.6005 32.8264C12.3396 32.9319 10.4223 31.1917 10.3131 28.9396L10.1332 25.1231C10.0305 22.871 11.7743 20.958 14.0353 20.8524Z" fill="white"/>
  <g opacity="0.35">
    <path opacity="0.6" d="M14.4453 28.935L14.5718 31.6275C14.58 31.8133 14.437 31.9713 14.2525 31.9796C13.2368 32.0268 12.2982 31.6358 11.6238 30.9675C11.0154 30.3658 10.6218 29.5395 10.5778 28.6106L10.5117 27.2158C11.12 28.4137 12.3835 29.2068 13.8038 29.1402L14.1561 29.1236C14.2856 29.1208 14.393 29.0432 14.4453 28.935Z" fill="#071D49"/>
  </g>
  <path d="M29.9467 43.0352C39.1896 43.0352 46.6824 35.4871 46.6824 26.1761C46.6824 16.8649 39.1896 9.31689 29.9467 9.31689C20.7038 9.31689 13.2109 16.8649 13.2109 26.1761C13.2109 35.4871 20.7038 43.0352 29.9467 43.0352Z" fill="white"/>
  <g opacity="0.35">
    <path opacity="0.35" d="M46.2382 24.1379C46.3263 24.8894 46.3594 25.6547 46.3428 26.4339C46.1254 35.5733 38.5943 42.805 29.5218 42.5887C20.4492 42.3697 13.2705 34.7831 13.4852 25.6436C13.4907 25.3802 13.5044 25.1168 13.5209 24.8589C14.4376 32.9419 21.1511 39.3112 29.4529 39.5108C38.264 39.7216 45.6217 32.9058 46.2382 24.1379Z" fill="#071D49"/>
  </g>
  <path d="M46.2761 26.8585C46.2485 30.0973 45.1778 33.0948 43.3693 35.5682C42.0151 37.4205 36.4851 40.637 29.689 40.6398C23.3883 40.6398 17.6877 37.207 16.3664 35.3297C14.602 32.8258 13.5863 29.8089 13.6138 26.5702C13.6881 17.9992 21.0321 14.5081 30.0495 14.5885C39.0725 14.6662 46.3531 18.2848 46.2761 26.8585Z" fill="#071D49"/>
  <path d="M29.6858 41.0417C23.1676 41.0417 17.423 37.5284 16.0384 35.5624C14.1611 32.8976 13.184 29.7865 13.2115 26.5644C13.2473 22.369 14.9456 19.1497 18.2598 16.9951C21.1527 15.1151 25.2293 14.1391 30.0519 14.1862C34.8744 14.2278 38.9345 15.2732 41.7944 17.2059C45.07 19.4186 46.7105 22.6685 46.6747 26.8638C46.6472 30.0832 45.615 33.1777 43.6909 35.8092C42.3587 37.6337 36.881 41.0416 29.6885 41.0444C29.6885 41.0416 29.6885 41.0417 29.6858 41.0417ZM29.7463 14.9876C25.21 14.9876 21.395 15.9137 18.6947 17.6689C15.6228 19.6682 14.0483 22.6629 14.0125 26.5699C13.985 29.6201 14.9126 32.5677 16.6908 35.0938C17.9542 36.8878 23.531 40.2347 29.6858 40.2347H29.6885C36.5094 40.2347 41.8357 36.9849 43.0441 35.3295C44.8663 32.8339 45.8462 29.9057 45.871 26.8555C45.9646 16.2742 34.8331 15.0347 30.0436 14.9903C29.9473 14.9903 29.8454 14.9876 29.7463 14.9876Z" fill="#071D49"/>
  <path d="M42.5143 25.7622C42.8148 24.1719 42.131 22.7049 40.9871 22.4856C39.8431 22.2662 38.672 23.3775 38.3716 24.9678C38.0711 26.558 38.7549 28.025 39.8989 28.2444C41.0429 28.4636 42.2139 27.3524 42.5143 25.7622Z" fill="white"/>
  <path d="M39.4306 31.7948C39.6672 31.0914 39.3734 30.3554 38.7744 30.1509C38.1755 29.9465 37.4981 30.351 37.2615 31.0545C37.025 31.7579 37.3186 32.4939 37.9176 32.6983C38.5166 32.9028 39.1939 32.4982 39.4306 31.7948Z" fill="white"/>
  <path d="M17.2378 31.6998C17.2378 31.6998 14.6752 23.2203 19.2307 19.8901C23.7835 16.5599 30.2934 16.632 30.1365 17.0507C30.1365 17.0507 22.9164 18.7449 20.0455 24.457C17.8324 28.8632 17.2378 31.6998 17.2378 31.6998Z" fill="white"/>
  <g opacity="0.6">
    <path opacity="0.6" d="M14.3856 57.9421H46.4615C46.5028 57.8312 46.5358 57.7147 46.5578 57.5955H13.3203C13.4579 58.3497 14.003 58.9569 14.7104 59.1594C14.4544 58.9542 14.2452 58.6824 14.1131 58.3719C14.0277 58.1694 14.1736 57.9421 14.3856 57.9421Z" fill="white"/>
  </g>
  <path d="M41.7558 59.6641H18.1386C16.8779 59.6641 15.8182 58.7657 15.6805 57.5789L13.6794 40.5395C13.517 39.1503 14.6648 37.9358 16.1375 37.9358H43.7542C45.2296 37.9358 46.3747 39.1503 46.2123 40.5395L44.2139 57.5789C44.0763 58.7657 43.0165 59.6641 41.7558 59.6641Z" fill="#F1F3FC"/>
  <path d="M37.0049 44.7765C37.049 43.6331 37.0278 43.387 37.0094 43.0736C35.0474 43.3171 35.4942 43.2841 34.8663 43.3906C34.4713 43.4576 33.4653 43.7381 33.4082 43.7521C32.7792 43.9132 32.1857 44.1593 31.6206 44.4832C30.7408 44.9762 30.0532 45.6961 29.4439 46.487C28.7918 47.3202 28.218 48.2103 27.7369 49.1499C27.2487 50.0968 26.7962 51.0653 26.3365 52.0264C26.3078 52.083 26.2933 52.182 26.3289 52.2175C26.5141 52.4162 26.7207 52.6004 26.9273 52.7991C27.3857 52.3333 27.8226 51.8816 28.2594 51.437C28.8467 50.83 29.4412 50.2304 30.0356 49.6306C30.2504 49.4189 30.5219 49.3769 30.7501 49.5119C31.0853 49.711 31.1342 50.1218 30.8478 50.4112C29.8665 51.4204 28.8782 52.4223 27.8899 53.4316C27.8397 53.481 27.7968 53.5304 27.7538 53.5727C27.7751 53.6082 27.7751 53.6223 27.7894 53.6294C27.9603 53.7997 28.1385 53.9559 28.3023 54.1262C28.3807 54.2042 28.4378 54.1973 28.5308 54.1622C30.3901 53.2969 32.1854 52.3394 33.8101 51.0845C34.4113 50.6262 34.9698 50.1179 35.4428 49.5248C36.0519 48.7551 36.4328 47.8718 36.6782 46.9313C36.6998 46.8323 36.9665 45.7714 37.0049 44.7765ZM34.8604 48.2638C34.1084 49.019 32.887 49.0439 32.1247 48.3059C31.3624 47.5749 31.3442 46.3577 32.089 45.5955C32.8196 44.8474 34.041 44.8295 34.8104 45.5676C35.5656 46.2985 35.5909 47.5228 34.8604 48.2638Z" fill="#071D49"/>
  <path d="M27.4008 47.394C26.8122 48.4892 26.2307 49.5915 25.6349 50.708C24.7568 50.557 23.8501 50.4059 22.922 50.2548C23.6963 49.1529 24.5417 48.1646 25.7931 47.6231C26.3294 47.3769 26.9868 47.2938 27.4008 47.394Z" fill="#071D49"/>
  <path d="M32.4136 55.7865C31.8832 56.4786 31.2318 57.0288 30.509 57.5504C30.3186 56.6087 30.1354 55.6883 29.9521 54.782C31.0608 54.1552 32.1481 53.5425 33.2426 52.9228C33.3346 53.2344 33.3266 53.5741 33.2757 53.9207C33.1667 54.6209 32.8436 55.2286 32.4136 55.7865Z" fill="#071D49"/>
  <g opacity="0.35">
    <path opacity="0.6" d="M43.3386 57.426L45.3526 40.5585C45.4081 40.0974 45.2638 39.6417 44.9476 39.2766C44.5897 38.8622 44.0599 38.6206 43.4829 38.6014V38.5986C42.659 41.3984 38.0651 57.0198 16.2969 57.6127C16.4883 58.4197 17.2761 59.0071 18.2054 59.0071H41.3912C42.3954 59.0071 43.2304 58.3263 43.3386 57.426Z" fill="#071D49"/>
  </g>
  <g opacity="0.6">
    <path opacity="0.6" d="M16.8123 57.9116L14.8139 40.8722C14.7561 40.3786 14.9075 39.8934 15.2378 39.5024C15.6259 39.0449 16.2067 38.7842 16.8316 38.7842H44.4483C44.663 38.7842 44.8722 38.8175 45.0704 38.8757C45.0291 38.8147 44.9851 38.7537 44.9355 38.6955C44.5474 38.2379 43.9666 37.9773 43.3418 37.9773H15.725C15.1002 37.9773 14.5194 38.2379 14.1313 38.6955C13.801 39.0837 13.6496 39.5717 13.7074 40.0653L15.7058 57.1047C15.7938 57.8617 16.3581 58.4717 17.1013 58.6935C16.9499 58.4634 16.8481 58.2 16.8123 57.9116Z" fill="white"/>
  </g>
  <path fill-rule="evenodd" clip-rule="evenodd" d="M14.7856 57.6843L12.7872 40.6449C12.6824 39.7442 12.9627 38.8659 13.5661 38.1796C14.2118 37.4475 15.1514 37.0337 16.1382 37.0337H43.7549C44.7417 37.0337 45.6809 37.4469 46.3265 38.179C46.9329 38.8653 47.2136 39.7449 47.1058 40.6462M47.1058 40.6462L45.1077 57.683C44.9166 59.3459 43.4553 60.5662 41.7566 60.5662H18.1393C16.4388 60.5662 14.9826 59.3417 14.7856 57.6843M14.5732 40.4353L16.5715 57.4735C16.6546 58.1834 17.3042 58.762 18.1366 58.762H41.7538C42.5862 58.762 43.2358 58.1835 43.3189 57.4736L45.3172 40.4353C45.3611 40.0521 45.2452 39.6795 44.977 39.3762C44.6792 39.0387 44.2337 38.8378 43.7522 38.8378H16.1382C15.6567 38.8378 15.2116 39.0383 14.9139 39.3757C14.6456 39.6789 14.5294 40.0522 14.5732 40.4353Z" fill="#071D49"/>
  <g opacity="0.3">
    <path opacity="0.6" d="M55.5209 61.1142C55.5209 62.1211 43.9794 62.9374 29.7429 62.9374C15.5063 62.9374 3.96484 62.1192 3.96484 61.1142C3.96484 60.8322 4.87767 60.5621 6.50617 60.3237H52.9776C54.608 60.5621 55.5209 60.8302 55.5209 61.1142Z" fill="#071D49"/>
  </g>
  <path d="M76.4147 42.5914C75.742 42.5914 75.2665 42.4512 74.9882 42.1708C74.733 41.8905 74.6055 41.4465 74.6055 40.839V20.5454C74.6055 19.9379 74.7446 19.494 75.023 19.2136C75.3013 18.9098 75.7652 18.7579 76.4147 18.7579H90.8537C91.5031 18.7579 91.9439 18.8981 92.1758 19.1785C92.4078 19.4355 92.5237 19.8795 92.5237 20.5104V22.1226C92.5237 22.7535 92.4078 23.2092 92.1758 23.4896C91.9439 23.7466 91.5031 23.8751 90.8537 23.8751H81.6336V28.1511H87.7223C88.3718 28.1511 88.8125 28.2913 89.0445 28.5717C89.2996 28.8287 89.4272 29.2727 89.4272 29.9036V31.4458C89.4272 32.0767 89.2996 32.5323 89.0445 32.8127C88.8125 33.0697 88.3718 33.1982 87.7223 33.1982H81.6336V37.5093H90.8189C91.4684 37.5093 91.9091 37.6495 92.141 37.9299C92.373 38.1869 92.4889 38.6309 92.4889 39.2618V40.874C92.4889 41.4815 92.373 41.9255 92.141 42.2059C91.9091 42.4629 91.4684 42.5914 90.8189 42.5914H76.4147Z" fill="#071D49"/>
  <path d="M96.2914 42.5914C95.6187 42.5914 95.1432 42.4512 94.8649 42.1708C94.6098 41.8905 94.4822 41.4465 94.4822 40.839V20.5454C94.4822 19.9379 94.6214 19.494 94.8997 19.2136C95.178 18.9098 95.6419 18.7579 96.2914 18.7579H104.816C108.063 18.7579 110.452 19.4472 111.983 20.8258C113.514 22.2044 114.279 24.2607 114.279 26.9945C114.279 29.705 113.514 31.7495 111.983 33.1281C110.475 34.4834 108.086 35.161 104.816 35.161H101.51V40.839C101.51 41.4465 101.371 41.8905 101.093 42.1708C100.814 42.4512 100.339 42.5914 99.6663 42.5914H96.2914ZM104.259 30.0788C105.21 30.0788 105.941 29.8218 106.451 29.3078C106.984 28.7937 107.251 28.0226 107.251 26.9945C107.251 25.943 106.984 25.1603 106.451 24.6462C105.941 24.1321 105.21 23.8751 104.259 23.8751H101.51V30.0788H104.259Z" fill="#071D49"/>
  <path d="M117.799 42.5914C117.126 42.5914 116.651 42.4512 116.373 42.1708C116.117 41.8905 115.99 41.4465 115.99 40.839V20.5454C115.99 19.9379 116.129 19.494 116.407 19.2136C116.686 18.9098 117.15 18.7579 117.799 18.7579H121.174C121.847 18.7579 122.322 18.9098 122.6 19.2136C122.879 19.494 123.018 19.9379 123.018 20.5454V40.839C123.018 41.4465 122.879 41.8905 122.6 42.1708C122.322 42.4512 121.847 42.5914 121.174 42.5914H117.799Z" fill="#071D49"/>
  <path d="M138.33 43.1172C134.201 43.1172 131 42.0657 128.727 39.9627C126.454 37.8364 125.317 34.7404 125.317 30.6747C125.317 26.5856 126.419 23.4896 128.623 21.3866C130.849 19.2837 134.015 18.2322 138.121 18.2322C139.907 18.2322 141.519 18.4191 142.957 18.793C144.395 19.1435 145.601 19.6458 146.576 20.3001C146.831 20.4636 146.958 20.6739 146.958 20.931C146.958 21.0945 146.877 21.3399 146.715 21.667L145.219 24.2256C145.08 24.5294 144.894 24.6812 144.662 24.6812C144.523 24.6812 144.291 24.5995 143.966 24.4359C142.574 23.6648 140.939 23.2793 139.06 23.2793C136.903 23.2793 135.233 23.9102 134.05 25.1719C132.89 26.4103 132.311 28.2446 132.311 30.6747C132.311 33.1048 132.937 34.9507 134.189 36.2125C135.442 37.4742 137.147 38.1051 139.304 38.1051C141.206 38.1051 142.888 37.7196 144.349 36.9485C144.674 36.7849 144.906 36.7032 145.045 36.7032C145.254 36.7032 145.439 36.8434 145.601 37.1238L147.167 39.8225C147.306 40.0562 147.376 40.2665 147.376 40.4534C147.376 40.6637 147.237 40.874 146.958 41.0843C145.01 42.4396 142.134 43.1172 138.33 43.1172Z" fill="#071D49"/>
  <path d="M172.767 43.1172C168.731 43.1172 165.658 42.0423 163.547 39.8926C161.46 37.7196 160.416 34.6469 160.416 30.6747C160.416 26.7024 161.46 23.6415 163.547 21.4918C165.658 19.3187 168.731 18.2322 172.767 18.2322C176.803 18.2322 179.865 19.3187 181.953 21.4918C184.063 23.6415 185.119 26.7024 185.119 30.6747C185.119 34.6469 184.063 37.7196 181.953 39.8926C179.865 42.0423 176.803 43.1172 172.767 43.1172ZM172.767 38.1051C174.6 38.1051 175.945 37.4859 176.803 36.2475C177.685 35.0091 178.125 33.1515 178.125 30.6747C178.125 28.2212 177.685 26.3753 176.803 25.1369C175.945 23.8985 174.6 23.2793 172.767 23.2793C170.935 23.2793 169.578 23.8985 168.696 25.1369C167.838 26.3753 167.409 28.2212 167.409 30.6747C167.409 33.1515 167.838 35.0091 168.696 36.2475C169.578 37.4859 170.935 38.1051 172.767 38.1051Z" fill="#071D49"/>
  <path d="M189.219 42.5914C188.547 42.5914 188.071 42.4512 187.793 42.1708C187.538 41.8905 187.41 41.4465 187.41 40.839V20.5104C187.41 19.9029 187.549 19.4589 187.828 19.1785C188.106 18.8981 188.581 18.7579 189.254 18.7579H192.003C192.42 18.7579 192.745 18.8163 192.977 18.9332C193.232 19.05 193.476 19.2837 193.708 19.6341L201.745 31.2705V20.5454C201.745 19.9379 201.884 19.494 202.162 19.2136C202.441 18.9098 202.904 18.7579 203.554 18.7579H206.929C207.601 18.7579 208.077 18.9098 208.355 19.2136C208.634 19.494 208.773 19.9379 208.773 20.5454V40.874C208.773 41.4815 208.634 41.9255 208.355 42.2059C208.077 42.4629 207.601 42.5914 206.929 42.5914H204.18C203.739 42.5914 203.403 42.5447 203.171 42.4512C202.939 42.3344 202.707 42.1007 202.475 41.7503L194.438 30.1139V40.874C194.438 41.4815 194.299 41.9255 194.021 42.2059C193.742 42.4629 193.267 42.5914 192.594 42.5914H189.219Z" fill="#071D49"/>
  <path d="M213.581 42.5914C212.908 42.5914 212.433 42.4512 212.155 42.1708C211.899 41.8905 211.772 41.4465 211.772 40.839V20.5454C211.772 19.9379 211.911 19.494 212.189 19.2136C212.468 18.9098 212.932 18.7579 213.581 18.7579H228.02C228.669 18.7579 229.11 18.8981 229.342 19.1785C229.574 19.4355 229.69 19.8795 229.69 20.5104V22.1226C229.69 22.7535 229.574 23.2092 229.342 23.4896C229.11 23.7466 228.669 23.8751 228.02 23.8751H218.8V28.1511H224.889C225.538 28.1511 225.979 28.2913 226.211 28.5717C226.466 28.8287 226.594 29.2727 226.594 29.9036V31.4458C226.594 32.0767 226.466 32.5323 226.211 32.8127C225.979 33.0697 225.538 33.1982 224.889 33.1982H218.8V37.5093H227.985C228.635 37.5093 229.075 37.6495 229.307 37.9299C229.539 38.1869 229.655 38.6309 229.655 39.2618V40.874C229.655 41.4815 229.539 41.9255 229.307 42.2059C229.075 42.4629 228.635 42.5914 227.985 42.5914H213.581Z" fill="#071D49"/>
  <path d="M244.942 42.5914C244.269 42.5914 243.794 42.4512 243.516 42.1708C243.26 41.8905 243.133 41.4465 243.133 40.839V20.5454C243.133 19.9379 243.272 19.494 243.55 19.2136C243.829 18.9098 244.293 18.7579 244.942 18.7579H248.317C248.99 18.7579 249.465 18.9098 249.743 19.2136C250.022 19.494 250.161 19.9379 250.161 20.5454V28.1161H258.094V20.5454C258.094 19.9379 258.233 19.494 258.511 19.2136C258.79 18.9098 259.265 18.7579 259.938 18.7579H263.313C263.985 18.7579 264.461 18.9098 264.739 19.2136C265.017 19.494 265.157 19.9379 265.157 20.5454V40.839C265.157 41.4465 265.017 41.8905 264.739 42.1708C264.461 42.4512 263.985 42.5914 263.313 42.5914H259.938C259.265 42.5914 258.79 42.4512 258.511 42.1708C258.233 41.8905 258.094 41.4465 258.094 40.839V33.1982H250.161V40.839C250.161 41.4465 250.022 41.8905 249.743 42.1708C249.465 42.4512 248.99 42.5914 248.317 42.5914H244.942Z" fill="#071D49"/>
  <path d="M279.796 43.1172C275.76 43.1172 272.686 42.0423 270.576 39.8926C268.488 37.7196 267.444 34.6469 267.444 30.6747C267.444 26.7024 268.488 23.6415 270.576 21.4918C272.686 19.3187 275.76 18.2322 279.796 18.2322C283.832 18.2322 286.893 19.3187 288.981 21.4918C291.092 23.6415 292.147 26.7024 292.147 30.6747C292.147 34.6469 291.092 37.7196 288.981 39.8926C286.893 42.0423 283.832 43.1172 279.796 43.1172ZM279.796 38.1051C281.628 38.1051 282.973 37.4859 283.832 36.2475C284.713 35.0091 285.154 33.1515 285.154 30.6747C285.154 28.2212 284.713 26.3753 283.832 25.1369C282.973 23.8985 281.628 23.2793 279.796 23.2793C277.963 23.2793 276.606 23.8985 275.725 25.1369C274.867 26.3753 274.438 28.2212 274.438 30.6747C274.438 33.1515 274.867 35.0091 275.725 36.2475C276.606 37.4859 277.963 38.1051 279.796 38.1051Z" fill="#071D49"/>
  <path d="M305.398 43.1172C303.195 43.1172 301.246 42.755 299.553 42.0307C297.883 41.3063 296.584 40.2548 295.656 38.8762C294.728 37.4976 294.265 35.862 294.265 33.9693V20.5454C294.265 19.9379 294.404 19.494 294.682 19.2136C294.96 18.9098 295.424 18.7579 296.074 18.7579H299.449C300.121 18.7579 300.597 18.9098 300.875 19.2136C301.154 19.494 301.293 19.9379 301.293 20.5454V34.0745C301.293 35.383 301.652 36.3877 302.371 37.0887C303.114 37.7663 304.123 38.1051 305.398 38.1051C306.674 38.1051 307.671 37.7663 308.39 37.0887C309.109 36.3877 309.469 35.383 309.469 34.0745V20.5454C309.469 19.9379 309.608 19.494 309.887 19.2136C310.165 18.9098 310.629 18.7579 311.278 18.7579H314.653C315.326 18.7579 315.801 18.9098 316.08 19.2136C316.381 19.494 316.532 19.9379 316.532 20.5454V33.9693C316.532 35.862 316.056 37.4976 315.105 38.8762C314.178 40.2548 312.879 41.3063 311.209 42.0307C309.539 42.755 307.602 43.1172 305.398 43.1172Z" fill="#071D49"/>
  <path d="M321.153 42.5914C320.48 42.5914 320.005 42.4512 319.727 42.1708C319.471 41.8905 319.344 41.4465 319.344 40.839V20.5454C319.344 19.9379 319.483 19.494 319.761 19.2136C320.04 18.9098 320.504 18.7579 321.153 18.7579H329.712C332.936 18.7579 335.314 19.4355 336.845 20.7908C338.376 22.146 339.141 24.1672 339.141 26.8543C339.141 30.1957 337.865 32.4972 335.314 33.759L338.758 41.2946C338.851 41.4815 338.897 41.6685 338.897 41.8554C338.897 42.0657 338.816 42.2409 338.654 42.3811C338.515 42.5213 338.318 42.5914 338.062 42.5914H333.191C332.844 42.5914 332.565 42.5447 332.356 42.4512C332.171 42.3578 332.032 42.1825 331.939 41.9255L329.051 34.8105H326.372V40.839C326.372 41.4465 326.233 41.8905 325.955 42.1708C325.676 42.4512 325.201 42.5914 324.528 42.5914H321.153ZM328.947 29.7984C331.057 29.7984 332.113 28.8171 332.113 26.8543C332.113 24.8682 331.115 23.8751 329.121 23.8751H326.372V29.7984H328.947Z" fill="#071D49"/>
</svg>
