<svg width="66" height="7" viewBox="0 0 66 7" fill="none" xmlns="http://www.w3.org/2000/svg">
  <path d="M1.12549 4.34955L1.17068 4.38233L1.21587 4.41497L1.26105 4.44748L1.30624 4.47984L1.35143 4.51205L1.39662 4.54411L1.44181 4.576L1.487 4.60772L1.53218 4.63927L1.57737 4.67063L1.62256 4.70181L1.66775 4.7328L1.71294 4.76359L1.75813 4.79417L1.80331 4.82455L1.8485 4.85471L1.89369 4.88464L1.93888 4.91436L1.98407 4.94383L2.02926 4.97308L2.07444 5.00207L2.11963 5.03082L2.16482 5.05931L2.21001 5.08755L2.2552 5.11552L2.30039 5.14322L2.34558 5.17064L2.39076 5.19778L2.43595 5.22464L2.48114 5.25121L2.52633 5.27748L2.57152 5.30345L2.61671 5.32912L2.66189 5.35447L2.70708 5.37951L2.75227 5.40424L2.79746 5.42863L2.84265 5.4527L2.88784 5.47643L2.93302 5.49983L2.97821 5.52288L3.0234 5.54559L3.06859 5.56795L3.11378 5.58995L3.15897 5.61159L3.20415 5.63287L3.24934 5.65378L3.29453 5.67432L3.33972 5.69448L3.38491 5.71427L3.4301 5.73368L3.47529 5.75269L3.52047 5.77132L3.56566 5.78956L3.61085 5.80739L3.65604 5.82483L3.70123 5.84187L3.74642 5.8585L3.7916 5.87471L3.83679 5.89052L3.88198 5.90591L3.92717 5.92088L3.97236 5.93543L4.01755 5.94956L4.06273 5.96326L4.10792 5.97653L4.15311 5.98937L4.1983 6.00178L4.24349 6.01375L4.28868 6.02527L4.33386 6.03636L4.37905 6.04701L4.42424 6.05721L4.46943 6.06697L4.51462 6.07627L4.55981 6.08513L4.605 6.09353L4.65018 6.10148L4.69537 6.10897L4.74056 6.11601L4.78575 6.12259L4.83094 6.12871L4.87613 6.13437L4.92131 6.13957L4.9665 6.1443L5.01169 6.14858L5.05688 6.15239L5.10207 6.15573L5.14726 6.15861L5.19244 6.16102L5.23763 6.16297L5.28282 6.16445L5.32801 6.16546L5.3732 6.16601L5.41839 6.16609L5.46357 6.1657L5.50876 6.16484L5.55395 6.16352L5.59914 6.16173L5.64433 6.15947L5.68952 6.15675L5.73471 6.15356L5.77989 6.14991L5.82508 6.14579L5.87027 6.14121L5.91546 6.13617L5.96065 6.13066L6.00584 6.1247L6.05102 6.11827L6.09621 6.11139L6.1414 6.10405L6.18659 6.09625L6.23178 6.088L6.27697 6.0793L6.32215 6.07014L6.36734 6.06054L6.41253 6.05049L6.45772 6.03999L6.50291 6.02905L6.5481 6.01767L6.59328 6.00585L6.63847 5.99359L6.68366 5.9809L6.72885 5.96777L6.77404 5.95422L6.81923 5.94023L6.86441 5.92582L6.9096 5.91099L6.95479 5.89574L6.99998 5.88008L7.04517 5.864L7.09036 5.8475L7.13555 5.83061L7.18073 5.8133L7.22592 5.7956L7.27111 5.7775L7.3163 5.759L7.36149 5.74011L7.40668 5.72084L7.45186 5.70118L7.49705 5.68114L7.54224 5.66073L7.58743 5.63994L7.63262 5.61879L7.67781 5.59726L7.72299 5.57538L7.76818 5.55315L7.81337 5.53056L7.85856 5.50762L7.90375 5.48434L7.94894 5.46072L7.99412 5.43676L8.03931 5.41247L8.0845 5.38786L8.12969 5.36293L8.17488 5.33768L8.22007 5.31212L8.26526 5.28625L8.31044 5.26008L8.35563 5.23361L8.40082 5.20685L8.44601 5.1798L8.4912 5.15247L8.53639 5.12486L8.58157 5.09698L8.62676 5.06884L8.67195 5.04043L8.71714 5.01177L8.76233 4.98285L8.80752 4.95369L8.8527 4.92429L8.89789 4.89466L8.94308 4.8648L8.98827 4.83471L9.03346 4.80441L9.07865 4.7739L9.12383 4.74317L9.16902 4.71225L9.21421 4.68114L9.2594 4.64983L9.30459 4.61835L9.34978 4.58668L9.39497 4.55485L9.44015 4.52285L9.48534 4.49069L9.53053 4.45838L9.57572 4.42592L9.62091 4.39332L9.6661 4.36059L9.71128 4.32772L9.75647 4.29474L9.80166 4.26164L9.84685 4.22843L9.89204 4.19511L9.93723 4.1617L9.98241 4.1282L10.0276 4.09461L10.0728 4.06094L10.118 4.02721L10.1632 3.9934L10.2084 3.95954L10.2535 3.92562L10.2987 3.89165L10.3439 3.85765L10.3891 3.82361L10.4343 3.78954L10.4795 3.75546L10.5247 3.72135L10.5699 3.68724L10.6151 3.65313L10.6602 3.61902L10.7054 3.58492L10.7506 3.55083L10.7958 3.51678L10.841 3.48275L10.8862 3.44876L10.9314 3.41481L10.9766 3.3809L11.0217 3.34706L11.0669 3.31328L11.1121 3.27956L11.1573 3.24592L11.2025 3.21236L11.2477 3.17888L11.2929 3.1455L11.3381 3.11222L11.3833 3.07905L11.4284 3.04598L11.4736 3.01304L11.5188 2.98022L11.564 2.94753L11.6092 2.91497L11.6544 2.88256L11.6996 2.8503L11.7448 2.81819L11.79 2.78625L11.8351 2.75447L11.8803 2.72286L11.9255 2.69143L11.9707 2.66019L12.0159 2.62914L12.0611 2.59828L12.1063 2.56763L12.1515 2.53718L12.1966 2.50695L12.2418 2.47693L12.287 2.44715L12.3322 2.41759L12.3774 2.38827L12.4226 2.35919L12.4678 2.33036L12.513 2.30178L12.5582 2.27345L12.6033 2.24539L12.6485 2.2176L12.6937 2.19009L12.7389 2.16285L12.7841 2.13589L12.8293 2.10923L12.8745 2.08286L12.9197 2.05678L12.9648 2.03102L13.01 2.00555L13.0552 1.98041L13.1004 1.95558L13.1456 1.93107L13.1908 1.90689L13.236 1.88305L13.2812 1.85954L13.3264 1.83637L13.3715 1.81354L13.4167 1.79107L13.4619 1.76895L13.5071 1.74719L13.5523 1.72578L13.5975 1.70475L13.6427 1.68408L13.6879 1.66379L13.7331 1.64388L13.7782 1.62434L13.8234 1.6052L13.8686 1.58644L13.9138 1.56807L13.959 1.5501L14.0042 1.53252L14.0494 1.51535L14.0946 1.49859L14.1397 1.48223L14.1849 1.46629L14.2301 1.45075L14.2753 1.43564L14.3205 1.42095L14.3657 1.40668L14.4109 1.39284L14.4561 1.37942L14.5013 1.36643L14.5464 1.35388L14.5916 1.34177L14.6368 1.33009L14.682 1.31885L14.7272 1.30806L14.7724 1.29771L14.8176 1.2878L14.8628 1.27835L14.908 1.26934L14.9531 1.26078L14.9983 1.25268L15.0435 1.24503L15.0887 1.23784L15.1339 1.23111L15.1791 1.22484L15.2243 1.21902L15.2695 1.21367L15.3146 1.20877L15.3598 1.20435L15.405 1.20038L15.4502 1.19688L15.4954 1.19384L15.5406 1.19127L15.5858 1.18917L15.631 1.18753L15.6762 1.18636L15.7213 1.18566L15.7665 1.18542L15.8117 1.18566L15.8569 1.18636L15.9021 1.18752L15.9473 1.18915L15.9925 1.19125L16.0377 1.19382L16.0828 1.19685L16.128 1.20035L16.1732 1.20431L16.2184 1.20873L16.2636 1.21362L16.3088 1.21897L16.354 1.22478L16.3992 1.23105L16.4444 1.23778L16.4895 1.24497L16.5347 1.25261L16.5799 1.26071L16.6251 1.26926L16.6703 1.27827L16.7155 1.28772L16.7607 1.29762L16.8059 1.30796L16.8511 1.31876L16.8962 1.32999L16.9414 1.34166L16.9866 1.35378L17.0318 1.36632L17.077 1.3793L17.1222 1.39272L17.1674 1.40656L17.2126 1.42082L17.2577 1.43551L17.3029 1.45062L17.3481 1.46615L17.3933 1.48209L17.4385 1.49844L17.4837 1.5152L17.5289 1.53237L17.5741 1.54994L17.6193 1.56791L17.6644 1.58627L17.7096 1.60503L17.7548 1.62417L17.8 1.6437L17.8452 1.66361L17.8904 1.6839L17.9356 1.70457L17.9808 1.7256L18.0259 1.747L18.0711 1.76876L18.1163 1.79087L18.1615 1.81335L18.2067 1.83617L18.2519 1.85933L18.2971 1.88284L18.3423 1.90668L18.3875 1.93086L18.4326 1.95536L18.4778 1.98019L18.523 2.00533L18.5682 2.03079L18.6134 2.05656L18.6586 2.08263L18.7038 2.109L18.749 2.13566L18.7942 2.16261L18.8393 2.18985L18.8845 2.21736L18.9297 2.24515L18.9749 2.27321L19.0201 2.30153L19.0653 2.3301L19.1105 2.35893L19.1557 2.38801L19.2008 2.41733L19.246 2.44689L19.2912 2.47667L19.3364 2.50668L19.3816 2.53691L19.4268 2.56736L19.472 2.59801L19.5172 2.62886L19.5624 2.65991L19.6075 2.69116L19.6527 2.72258L19.6979 2.75419L19.7431 2.78597L19.7883 2.81791L19.8335 2.85002L19.8787 2.88228L19.9239 2.91469L19.9691 2.94724L20.0142 2.97993L20.0594 3.01275L20.1046 3.04569L20.1498 3.07875L20.195 3.11193L20.2402 3.14521L20.2854 3.17859L20.3306 3.21206L20.3757 3.24562L20.4209 3.27926L20.4661 3.31298L20.5113 3.34676L20.5565 3.38061L20.6017 3.41451L20.6469 3.44846L20.6921 3.48245L20.7373 3.51648L20.7824 3.55054L20.8276 3.58462L20.8728 3.61872L20.918 3.65283L20.9632 3.68694L21.0084 3.72105L21.0536 3.75516L21.0988 3.78924L21.1439 3.82331L21.1891 3.85735L21.2343 3.89136L21.2795 3.92532L21.3247 3.95924L21.3699 3.9931L21.4151 4.02691L21.4603 4.06065L21.5055 4.09432L21.5506 4.12791L21.5958 4.16141L21.641 4.19482L21.6862 4.22814L21.7314 4.26135L21.7766 4.29445L21.8218 4.32744L21.867 4.3603L21.9122 4.39303L21.9573 4.42563L22.0025 4.45809L22.0477 4.49041L22.0929 4.52257L22.1381 4.55457L22.1833 4.5864L22.2285 4.61807L22.2737 4.64956L22.3188 4.68086L22.364 4.71198L22.4092 4.7429L22.4544 4.77363L22.4996 4.80414L22.5448 4.83445L22.59 4.86454L22.6352 4.8944L22.6804 4.92403L22.7255 4.95344L22.7707 4.9826L22.8159 5.01151L22.8611 5.04018L22.9063 5.06859L22.9515 5.09674L22.9967 5.12462L23.0419 5.15223L23.0871 5.17956L23.1322 5.20661L23.1774 5.23337L23.2226 5.25985L23.2678 5.28602L23.313 5.31189L23.3582 5.33746L23.4034 5.36271L23.4486 5.38764L23.4937 5.41226L23.5389 5.43655L23.5841 5.46051L23.6293 5.48413L23.6745 5.50742L23.7197 5.53036L23.7649 5.55295L23.8101 5.57519L23.8553 5.59707L23.9004 5.6186L23.9456 5.63976L23.9908 5.66055L24.036 5.68096L24.0812 5.70101L24.1264 5.72067L24.1716 5.73995L24.2168 5.75884L24.2619 5.77734L24.3071 5.79544L24.3523 5.81315L24.3975 5.83046L24.4427 5.84736L24.4879 5.86385L24.5331 5.87994L24.5783 5.89561L24.6235 5.91086L24.6686 5.9257L24.7138 5.94011L24.759 5.9541L24.8042 5.96765L24.8494 5.98078L24.8946 5.99348L24.9398 6.00574L24.985 6.01757L25.0302 6.02895L25.0753 6.0399L25.1205 6.0504L25.1657 6.06045L25.2109 6.07006L25.2561 6.07922L25.3013 6.08793L25.3465 6.09618L25.3917 6.10398L25.4368 6.11133L25.482 6.11821L25.5272 6.12464L25.5724 6.13061L25.6176 6.13612L25.6628 6.14117L25.708 6.14575L25.7532 6.14988L25.7984 6.15353L25.8435 6.15672L25.8887 6.15945L25.9339 6.16171L25.9791 6.16351L26.0243 6.16483L26.0695 6.16569L26.1147 6.16609L26.1599 6.16601L26.2051 6.16547L26.2502 6.16446L26.2954 6.16298L26.3406 6.16104L26.3858 6.15863L26.431 6.15576L26.4762 6.15242L26.5214 6.14861L26.5666 6.14434L26.6117 6.13961L26.6569 6.13442L26.7021 6.12876L26.7473 6.12264L26.7925 6.11607L26.8377 6.10903L26.8829 6.10155L26.9281 6.0936L26.9733 6.0852L27.0184 6.07635L27.0636 6.06705L27.1088 6.0573L27.154 6.0471L27.1992 6.03646L27.2444 6.02537L27.2896 6.01385L27.3348 6.00188L27.3799 5.98948L27.4251 5.97665L27.4703 5.96338L27.5155 5.94968L27.5607 5.93556L27.6059 5.92101L27.6511 5.90604L27.6963 5.89066L27.7415 5.87486L27.7866 5.85864L27.8318 5.84202L27.877 5.82498L27.9222 5.80755L27.9674 5.78972L28.0126 5.77148L28.0578 5.75286L28.103 5.73384L28.1482 5.71444L28.1933 5.69466L28.2385 5.6745L28.2837 5.65396L28.3289 5.63305L28.3741 5.61178L28.4193 5.59014L28.4645 5.56814L28.5097 5.54579L28.5548 5.52308L28.6 5.50003L28.6452 5.47664L28.6904 5.45291L28.7356 5.42884L28.7808 5.40445L28.826 5.37973L28.8712 5.3547L28.9164 5.32934L28.9615 5.30368L29.0067 5.27771L29.0519 5.25144L29.0971 5.22488L29.1423 5.19802L29.1875 5.17088L29.2327 5.14346L29.2779 5.11576L29.323 5.0878L29.3682 5.05956L29.4134 5.03107L29.4586 5.00233L29.5038 4.97333L29.549 4.94409L29.5942 4.91462L29.6394 4.88491L29.6846 4.85497L29.7297 4.82481L29.7749 4.79444L29.8201 4.76386L29.8653 4.73307L29.9105 4.70209L29.9557 4.67091L30.0009 4.63954L30.0461 4.608L30.0913 4.57628L30.1364 4.54439L30.1816 4.51234L30.2268 4.48013L30.272 4.44777L30.3172 4.41526L30.3624 4.38262L30.4076 4.34984L30.4528 4.31694L30.4979 4.28391L30.5431 4.25078L30.5883 4.21753L30.6335 4.18418L30.6787 4.15074L30.7239 4.11721L30.7691 4.08359L30.8143 4.0499L30.8595 4.01614L30.9046 3.98232L30.9498 3.94844L30.995 3.9145L31.0402 3.88052L31.0854 3.84651L31.1306 3.81246L31.1758 3.77838L31.221 3.74429L31.2662 3.71018L31.3113 3.67607L31.3565 3.64196L31.4017 3.60785L31.4469 3.57375L31.4921 3.53968L31.5373 3.50563L31.5825 3.47161L31.6277 3.43763L31.6728 3.4037L31.718 3.36981L31.7632 3.33599L31.8084 3.30223L31.8536 3.26853L31.8988 3.23492L31.944 3.20139L31.9892 3.16794L32.0344 3.13459L32.0795 3.10134L32.1247 3.06821L32.1699 3.03518L32.2151 3.00227L32.2603 2.9695L32.3055 2.93685L32.3507 2.90434L32.3959 2.87198L32.441 2.83977L32.4862 2.80771L32.5314 2.77582L32.5766 2.7441L32.6218 2.71255L32.667 2.68118L32.7122 2.65L32.7574 2.61901L32.8026 2.58822L32.8477 2.55763L32.8929 2.52726L32.9381 2.49709L32.9833 2.46715L33.0285 2.43744L33.0737 2.40796L33.1189 2.37872L33.1641 2.34972L33.2093 2.32097L33.2544 2.29247L33.2996 2.26424L33.3448 2.23626L33.39 2.20856L33.4352 2.18114L33.4804 2.15399L33.5256 2.12713L33.5708 2.10056L33.6159 2.07429L33.6611 2.04831L33.7063 2.02264L33.7515 1.99729L33.7967 1.97224L33.8419 1.94752L33.8871 1.92312L33.9323 1.89905L33.9775 1.87531L34.0226 1.85191L34.0678 1.82886L34.113 1.80615L34.1582 1.78379L34.2034 1.76178L34.2486 1.74014L34.2938 1.71886L34.339 1.69794L34.3842 1.6774L34.4293 1.65723L34.4745 1.63744L34.5197 1.61803L34.5649 1.59901L34.6101 1.58038L34.6553 1.56214L34.7005 1.5443L34.7457 1.52686L34.7908 1.50982L34.836 1.49319L34.8812 1.47696L34.9264 1.46115L34.9716 1.44576L35.0168 1.43078L35.062 1.41623L35.1072 1.4021L35.1524 1.38839L35.1975 1.37512L35.2427 1.36228L35.2879 1.34987L35.3331 1.3379L35.3783 1.32636L35.4235 1.31527L35.4687 1.30462L35.5139 1.29441L35.559 1.28466L35.6042 1.27535L35.6494 1.26649L35.6946 1.25808L35.7398 1.25013L35.785 1.24263L35.8302 1.23559L35.8754 1.22901L35.9206 1.22288L35.9657 1.21722L36.0109 1.21201L36.0561 1.20727L36.1013 1.203L36.1465 1.19918L36.1917 1.19583L36.2369 1.19295L36.2821 1.19053L36.3273 1.18858L36.3724 1.1871L36.4176 1.18608L36.4628 1.18553L36.508 1.18545L36.5532 1.18583L36.5984 1.18669L36.6436 1.188L36.6888 1.18979L36.7339 1.19204L36.7791 1.19476L36.8243 1.19794L36.8695 1.20159L36.9147 1.20571L36.9599 1.21028L37.0051 1.21532L37.0503 1.22082L37.0955 1.22678L37.1406 1.23321L37.1858 1.24009L37.231 1.24742L37.2762 1.25521L37.3214 1.26346L37.3666 1.27216L37.4118 1.28131L37.457 1.29091L37.5021 1.30096L37.5473 1.31145L37.5925 1.32239L37.6377 1.33376L37.6829 1.34558L37.7281 1.35784L37.7733 1.37053L37.8185 1.38365L37.8637 1.3972L37.9088 1.41118L37.954 1.42559L37.9992 1.44041L38.0444 1.45566L38.0896 1.47132L38.1348 1.4874L38.18 1.50389L38.2252 1.52078L38.2704 1.53808L38.3155 1.55578L38.3607 1.57388L38.4059 1.59237L38.4511 1.61126L38.4963 1.63053L38.5415 1.65018L38.5867 1.67022L38.6319 1.69063L38.677 1.71141L38.7222 1.73257L38.7674 1.75408L38.8126 1.77596L38.8578 1.79819L38.903 1.82078L38.9482 1.84372L38.9934 1.86699L39.0386 1.89061L39.0837 1.91456L39.1289 1.93885L39.1741 1.96346L39.2193 1.98839L39.2645 2.01363L39.3097 2.03919L39.3549 2.06506L39.4001 2.09123L39.4453 2.11769L39.4904 2.14445L39.5356 2.1715L39.5808 2.19883L39.626 2.22643L39.6712 2.25431L39.7164 2.28245L39.7616 2.31086L39.8068 2.33952L39.8519 2.36843L39.8971 2.39759L39.9423 2.42698L39.9875 2.45662L40.0327 2.48648L40.0779 2.51656L40.1231 2.54686L40.1683 2.57737L40.2135 2.60809L40.2586 2.63901L40.3038 2.67012L40.349 2.70143L40.3942 2.73291L40.4394 2.76457L40.4846 2.79641L40.5298 2.82841L40.575 2.86056L40.6202 2.89287L40.6653 2.92533L40.7105 2.95793L40.7557 2.99066L40.8009 3.02352L40.8461 3.05651L40.8913 3.08961L40.9365 3.12282L40.9817 3.15613L41.0268 3.18954L41.072 3.22304L41.1172 3.25663L41.1624 3.2903L41.2076 3.32403L41.2528 3.35784L41.298 3.3917L41.3432 3.42562L41.3884 3.45958L41.4335 3.49359L41.4787 3.52763L41.5239 3.56169L41.5691 3.59578L41.6143 3.62989L41.6595 3.664L41.7047 3.69811L41.7499 3.73222L41.795 3.76632L41.8402 3.8004L41.8854 3.83446L41.9306 3.86849L41.9758 3.90248L42.021 3.93643L42.0662 3.97033L42.1114 4.00418L42.1566 4.03797L42.2017 4.07168L42.2469 4.10532L42.2921 4.13889L42.3373 4.17236L42.3825 4.20574L42.4277 4.23902L42.4729 4.2722L42.5181 4.30527L42.5632 4.33821L42.6084 4.37103L42.6536 4.40373L42.6988 4.43628L42.744 4.46869L42.7892 4.50096L42.8344 4.53306L42.8796 4.56501L42.9248 4.59679L42.9699 4.6284L43.0151 4.65983L43.0603 4.69107L43.1055 4.72213L43.1507 4.75299L43.1959 4.78364L43.2411 4.81409L43.2863 4.84432L43.3315 4.87434L43.3766 4.90413L43.4218 4.93369L43.467 4.96301L43.5122 4.99209L43.5574 5.02093L43.6026 5.04951L43.6478 5.07784L43.693 5.1059L43.7381 5.13369L43.7833 5.16121L43.8285 5.18845L43.8737 5.21541L43.9189 5.24208L43.9641 5.26845L44.0093 5.29453L44.0545 5.3203L44.0997 5.34576L44.1448 5.37091L44.19 5.39574L44.2352 5.42025L44.2804 5.44443L44.3256 5.46828L44.3708 5.49179L44.416 5.51497L44.4612 5.53779L44.5064 5.56027L44.5515 5.5824L44.5967 5.60416L44.6419 5.62557L44.6871 5.6466L44.7323 5.66727L44.7775 5.68757L44.8227 5.70749L44.8679 5.72702L44.913 5.74617L44.9582 5.76494L45.0034 5.78331L45.0486 5.80128L45.0938 5.81886L45.139 5.83604L45.1842 5.8528L45.2294 5.86916L45.2746 5.88511L45.3197 5.90065L45.3649 5.91577L45.4101 5.93046L45.4553 5.94473L45.5005 5.95858L45.5457 5.972L45.5909 5.98499L45.6361 5.99755L45.6813 6.00966L45.7264 6.02135L45.7716 6.03259L45.8168 6.04339L45.862 6.05374L45.9072 6.06365L45.9524 6.07311L45.9976 6.08212L46.0428 6.09068L46.0879 6.09879L46.1331 6.10644L46.1783 6.11363L46.2235 6.12037L46.2687 6.12665L46.3139 6.13247L46.3591 6.13783L46.4043 6.14272L46.4495 6.14715L46.4946 6.15112L46.5398 6.15463L46.585 6.15767L46.6302 6.16024L46.6754 6.16235L46.7206 6.16399L46.7658 6.16517L46.811 6.16587L46.8561 6.16611L46.9013 6.16588L46.9465 6.16519L46.9917 6.16403L47.0369 6.1624L47.0821 6.1603L47.1273 6.15774L47.1725 6.15472L47.2177 6.15122L47.2628 6.14726L47.308 6.14284L47.3532 6.13796L47.3984 6.13261L47.4436 6.12681L47.4888 6.12054L47.534 6.11382L47.5792 6.10663L47.6244 6.09899L47.6695 6.0909L47.7147 6.08235L47.7599 6.07335L47.8051 6.06391L47.8503 6.05401L47.8955 6.04367L47.9407 6.03288L47.9859 6.02165L48.031 6.00998L48.0762 5.99787L48.1214 5.98533L48.1666 5.97235L48.2118 5.95894L48.257 5.94511L48.3022 5.93084L48.3474 5.91616L48.3926 5.90105L48.4377 5.88553L48.4829 5.86959L48.5281 5.85324L48.5733 5.83648L48.6185 5.81932L48.6637 5.80175L48.7089 5.78379L48.7541 5.76543L48.7993 5.74667L48.8444 5.72753L48.8896 5.70801L48.9348 5.6881L48.98 5.66781L49.0252 5.64716L49.0704 5.62613L49.1156 5.60473L49.1608 5.58297L49.2059 5.56086L49.2511 5.53839L49.2963 5.51557L49.3415 5.49241L49.3867 5.46891L49.4319 5.44506L49.4771 5.42089L49.5223 5.39639L49.5675 5.37157L49.6126 5.34643L49.6578 5.32097L49.703 5.29521L49.7482 5.26914L49.7934 5.24277L49.8386 5.21612L49.8838 5.18917L49.929 5.16193L49.9741 5.13442L50.0193 5.10663L50.0645 5.07858L50.1097 5.05026L50.1549 5.02169L50.2001 4.99286L50.2453 4.96378L50.2905 4.93447L50.3357 4.90491L50.3808 4.87513L50.426 4.84512L50.4712 4.81489L50.5164 4.78445L50.5616 4.7538L50.6068 4.72295L50.652 4.6919L50.6972 4.66066L50.7424 4.62923L50.7875 4.59763L50.8327 4.56585L50.8779 4.53391L50.9231 4.5018L50.9683 4.46955L51.0135 4.43714L51.0587 4.40459L51.1039 4.3719L51.149 4.33908L51.1942 4.30614L51.2394 4.27307L51.2846 4.2399L51.3298 4.20662L51.375 4.17324L51.4202 4.13977L51.4654 4.10621L51.5106 4.07257L51.5557 4.03886L51.6009 4.00507L51.6461 3.97123L51.6913 3.93733L51.7365 3.90338L51.7817 3.86939L51.8269 3.83536L51.8721 3.8013L51.9172 3.76722L51.9624 3.73312L52.0076 3.69901L52.0528 3.6649L52.098 3.63078L52.1432 3.59668L52.1884 3.56259L52.2336 3.52853L52.2788 3.49449L52.3239 3.46048L52.3691 3.42652L52.4143 3.3926L52.4595 3.35873L52.5047 3.32493L52.5499 3.29118L52.5951 3.25752L52.6403 3.22393L52.6855 3.19042L52.7306 3.15701L52.7758 3.12369L52.821 3.09048L52.8662 3.05738L52.9114 3.02439L52.9566 2.99153L53.0018 2.95879L53.047 2.92619L53.0921 2.89373L53.1373 2.86141L53.1825 2.82925L53.2277 2.79725L53.2729 2.76541L53.3181 2.73375L53.3633 2.70225L53.4085 2.67095L53.4537 2.63983L53.4988 2.6089L53.544 2.57818L53.5892 2.54766L53.6344 2.51736L53.6796 2.48727L53.7248 2.4574L53.77 2.42776L53.8152 2.39836L53.8604 2.3692L53.9055 2.34028L53.9507 2.31161L53.9959 2.2832L54.0411 2.25505L54.0863 2.22716L54.1315 2.19955L54.1767 2.17222L54.2219 2.14516L54.267 2.1184L54.3122 2.09192L54.3574 2.06575L54.4026 2.03987L54.4478 2.0143L54.493 1.98905L54.5382 1.96411L54.5834 1.93949L54.6286 1.9152L54.6737 1.89124L54.7189 1.86761L54.7641 1.84432L54.8093 1.82138L54.8545 1.79879L54.8997 1.77654L54.9449 1.75465L54.9901 1.73313L55.0352 1.71197L55.0804 1.69117L55.1256 1.67075L55.1708 1.65071L55.216 1.63104L55.2612 1.61176L55.3064 1.59287L55.3516 1.57436L55.3968 1.55625L55.4419 1.53854L55.4871 1.52123L55.5323 1.50433L55.5775 1.48783L55.6227 1.47174L55.6679 1.45607L55.7131 1.44081L55.7583 1.42597L55.8035 1.41156L55.8486 1.39756L55.8938 1.384L55.939 1.37087L55.9842 1.35817L56.0294 1.3459L56.0746 1.33407L56.1198 1.32268L56.165 1.31173L56.2101 1.30123L56.2553 1.29117L56.3005 1.28156L56.3457 1.2724L56.3909 1.26369L56.4361 1.25543L56.4813 1.24762L56.5265 1.24027L56.5717 1.23338L56.6168 1.22695L56.662 1.22097L56.7072 1.21546L56.7524 1.21041L56.7976 1.20582L56.8428 1.2017L56.888 1.19804L56.9332 1.19484L56.9784 1.19211L57.0235 1.18984L57.0687 1.18805L57.1139 1.18671L57.1591 1.18585L57.2043 1.18545L57.2495 1.18552L57.2947 1.18606L57.3399 1.18707L57.385 1.18854L57.4302 1.19048L57.4754 1.19288L57.5206 1.19575L57.5658 1.19909L57.611 1.20289L57.6562 1.20715L57.7014 1.21188L57.7466 1.21707L57.7917 1.22273L57.8369 1.22884L57.8821 1.23541L57.9273 1.24244L57.9725 1.24992L58.0177 1.25787L58.0629 1.26626L58.1081 1.27511L58.1532 1.2844L58.1984 1.29415L58.2436 1.30434L58.2888 1.31498L58.334 1.32606L58.3792 1.33759L58.4244 1.34955L58.4696 1.36194L58.5148 1.37478L58.5599 1.38804L58.6051 1.40173L58.6503 1.41585L58.6955 1.43039L58.7407 1.44536L58.7859 1.46074L58.8311 1.47654L58.8763 1.49275L58.9215 1.50937L58.9666 1.5264L59.0118 1.54383L59.057 1.56166L59.1022 1.57989L59.1474 1.59851L59.1926 1.61752L59.2378 1.63692L59.283 1.6567L59.3281 1.67686L59.3733 1.69739L59.4185 1.7183L59.4637 1.73957L59.5089 1.76121L59.5541 1.7832L59.5993 1.80555L59.6445 1.82825L59.6897 1.8513L59.7348 1.87469L59.78 1.89842L59.8252 1.92248L59.8704 1.94687L59.9156 1.97159L59.9608 1.99662L60.006 2.02197L60.0512 2.04763L60.0963 2.0736L60.1415 2.09986L60.1867 2.12642L60.2319 2.15328L60.2771 2.18042L60.3223 2.20784L60.3675 2.23553L60.4127 2.26349L60.4579 2.29172L60.503 2.32021L60.5482 2.34896L60.5934 2.37795L60.6386 2.40719L60.6838 2.43666L60.729 2.46637L60.7742 2.4963L60.8194 2.52646L60.8645 2.55683L60.9097 2.58741L60.9549 2.61819L61.0001 2.64918L61.0453 2.68035L61.0905 2.71172L61.1357 2.74326L61.1809 2.77498L61.2261 2.80687L61.2712 2.83892L61.3164 2.87113L61.3616 2.90349L61.4068 2.93599L61.452 2.96863L61.4972 3.00141L61.5424 3.03431L61.5876 3.06733L61.6328 3.10047L61.6779 3.13371L61.7231 3.16706L61.7683 3.2005L61.8135 3.23403L61.8587 3.26765L61.9039 3.30134L61.9491 3.3351L61.9943 3.36892L62.0395 3.4028L62.0846 3.43674L62.1298 3.47072L62.175 3.50473L62.2202 3.53878L62.2654 3.57286L62.3106 3.60695L62.3558 3.64106L62.401 3.67517L62.4461 3.70928L62.4913 3.74339L62.5365 3.77748L62.5817 3.81156L62.6269 3.84561L62.6721 3.87963L62.7173 3.91361L62.7625 3.94754L62.8077 3.98143L62.8528 4.01525L62.898 4.04902L62.9432 4.08271L62.9884 4.11632L63.0336 4.14986L63.0788 4.1833L63.124 4.21665L63.1692 4.2499L63.2143 4.28304L63.2595 4.31607L63.3047 4.34897L63.3499 4.38175L63.3951 4.4144L63.4403 4.44691L63.4855 4.47927L63.5307 4.51149L63.5759 4.54354L63.621 4.57544L63.6662 4.60716L63.7114 4.63871L63.7566 4.67008L63.8018 4.70127L63.847 4.73226L63.8922 4.76305L63.9374 4.79364L63.9826 4.82402L64.0277 4.85418L64.0729 4.88412L64.1181 4.91383L64.1633 4.94332L64.2085 4.97256L64.2537 5.00156L64.2989 5.03032L64.3441 5.05881L64.3892 5.08705L64.4344 5.11503L64.4796 5.14273L64.5248 5.17016L64.57 5.19731L64.6152 5.22417L64.6604 5.25075L64.7056 5.27702L64.7508 5.303L64.7959 5.32867L64.8411 5.35403L64.8863 5.37908L64.9315 5.4038L64.9767 5.42821L65.0219 5.45228L65.0671 5.47602L65.1123 5.49942L65.1575 5.52248L65.2026 5.54519L65.2478 5.56756L65.293 5.58956L65.3382 5.61121" stroke="#A6A6A6" stroke-miterlimit="10" stroke-linecap="round" stroke-linejoin="round"/>
</svg>
